<svg width="42" height="1080" viewBox="0 0 42 1080" fill="none" xmlns="http://www.w3.org/2000/svg">
<path d="M20.1341 13.5L29.1309 25.5H11.1374L20.1341 13.5Z" fill="#608C88"/>
<path d="M20.1276 37.5L11.1309 25.5H29.1243L20.1276 37.5Z" fill="#608C88"/>
<path d="M40.6309 25.5L20.1309 0L0.630859 25.5L20.1309 50.5L40.6309 25.5Z" stroke="#608C88"/>
<path d="M20.1341 65L29.1309 77H11.1374L20.1341 65Z" fill="#608C88"/>
<path d="M20.1276 89L11.1309 77H29.1243L20.1276 89Z" fill="#608C88"/>
<path d="M40.6309 77L20.1309 51.5L0.630859 77L20.1309 102L40.6309 77Z" stroke="#608C88"/>
<path d="M20.1341 116.5L29.1309 128.5H11.1374L20.1341 116.5Z" fill="#608C88"/>
<path d="M20.1276 140.5L11.1309 128.5H29.1243L20.1276 140.5Z" fill="#608C88"/>
<path d="M40.6309 128.5L20.1309 103L0.630859 128.5L20.1309 153.5L40.6309 128.5Z" stroke="#608C88"/>
<path d="M20.1341 168L29.1309 180H11.1374L20.1341 168Z" fill="#608C88"/>
<path d="M20.1276 192L11.1309 180H29.1243L20.1276 192Z" fill="#608C88"/>
<path d="M40.6309 180L20.1309 154.5L0.630859 180L20.1309 205L40.6309 180Z" stroke="#608C88"/>
<path d="M20.1341 219.5L29.1309 231.5H11.1374L20.1341 219.5Z" fill="#608C88"/>
<path d="M20.1276 243.5L11.1309 231.5H29.1243L20.1276 243.5Z" fill="#608C88"/>
<path d="M40.6309 231.5L20.1309 206L0.630859 231.5L20.1309 256.5L40.6309 231.5Z" stroke="#608C88"/>
<path d="M20.1341 271L29.1309 283H11.1374L20.1341 271Z" fill="#608C88"/>
<path d="M20.1276 295L11.1309 283H29.1243L20.1276 295Z" fill="#608C88"/>
<path d="M40.6309 283L20.1309 257.5L0.630859 283L20.1309 308L40.6309 283Z" stroke="#608C88"/>
<path d="M20.1341 322.5L29.1309 334.5H11.1374L20.1341 322.5Z" fill="#608C88"/>
<path d="M20.1276 346.5L11.1309 334.5H29.1243L20.1276 346.5Z" fill="#608C88"/>
<path d="M40.6309 334.5L20.1309 309L0.630859 334.5L20.1309 359.5L40.6309 334.5Z" stroke="#608C88"/>
<path d="M20.1341 374L29.1309 386H11.1374L20.1341 374Z" fill="#608C88"/>
<path d="M20.1276 398L11.1309 386H29.1243L20.1276 398Z" fill="#608C88"/>
<path d="M40.6309 386L20.1309 360.5L0.630859 386L20.1309 411L40.6309 386Z" stroke="#608C88"/>
<path d="M20.1341 425.5L29.1309 437.5H11.1374L20.1341 425.5Z" fill="#608C88"/>
<path d="M20.1276 449.5L11.1309 437.5H29.1243L20.1276 449.5Z" fill="#608C88"/>
<path d="M40.6309 437.5L20.1309 412L0.630859 437.5L20.1309 462.5L40.6309 437.5Z" stroke="#608C88"/>
<path d="M20.1341 477L29.1309 489H11.1374L20.1341 477Z" fill="#608C88"/>
<path d="M20.1276 501L11.1309 489H29.1243L20.1276 501Z" fill="#608C88"/>
<path d="M40.6309 489L20.1309 463.5L0.630859 489L20.1309 514L40.6309 489Z" stroke="#608C88"/>
<path d="M20.1341 528.5L29.1309 540.5H11.1374L20.1341 528.5Z" fill="#608C88"/>
<path d="M20.1276 552.5L11.1309 540.5H29.1243L20.1276 552.5Z" fill="#608C88"/>
<path d="M40.6309 540.5L20.1309 515L0.630859 540.5L20.1309 565.5L40.6309 540.5Z" stroke="#608C88"/>
<path d="M20.1341 580L29.1309 592H11.1374L20.1341 580Z" fill="#608C88"/>
<path d="M20.1276 604L11.1309 592H29.1243L20.1276 604Z" fill="#608C88"/>
<path d="M40.6309 592L20.1309 566.5L0.630859 592L20.1309 617L40.6309 592Z" stroke="#608C88"/>
<path d="M20.1341 631.5L29.1309 643.5H11.1374L20.1341 631.5Z" fill="#608C88"/>
<path d="M20.1276 655.5L11.1309 643.5H29.1243L20.1276 655.5Z" fill="#608C88"/>
<path d="M40.6309 643.5L20.1309 618L0.630859 643.5L20.1309 668.5L40.6309 643.5Z" stroke="#608C88"/>
<path d="M20.1341 683L29.1309 695H11.1374L20.1341 683Z" fill="#608C88"/>
<path d="M20.1276 707L11.1309 695H29.1243L20.1276 707Z" fill="#608C88"/>
<path d="M40.6309 695L20.1309 669.5L0.630859 695L20.1309 720L40.6309 695Z" stroke="#608C88"/>
<path d="M20.1341 734.5L29.1309 746.5H11.1374L20.1341 734.5Z" fill="#608C88"/>
<path d="M20.1276 758.5L11.1309 746.5H29.1243L20.1276 758.5Z" fill="#608C88"/>
<path d="M40.6309 746.5L20.1309 721L0.630859 746.5L20.1309 771.5L40.6309 746.5Z" stroke="#608C88"/>
<path d="M20.1341 786L29.1309 798H11.1374L20.1341 786Z" fill="#608C88"/>
<path d="M20.1276 810L11.1309 798H29.1243L20.1276 810Z" fill="#608C88"/>
<path d="M40.6309 798L20.1309 772.5L0.630859 798L20.1309 823L40.6309 798Z" stroke="#608C88"/>
<path d="M20.1341 837.5L29.1309 849.5H11.1374L20.1341 837.5Z" fill="#608C88"/>
<path d="M20.1276 861.5L11.1309 849.5H29.1243L20.1276 861.5Z" fill="#608C88"/>
<path d="M40.6309 849.5L20.1309 824L0.630859 849.5L20.1309 874.5L40.6309 849.5Z" stroke="#608C88"/>
<path d="M20.1341 889L29.1309 901H11.1374L20.1341 889Z" fill="#608C88"/>
<path d="M20.1276 913L11.1309 901H29.1243L20.1276 913Z" fill="#608C88"/>
<path d="M40.6309 901L20.1309 875.5L0.630859 901L20.1309 926L40.6309 901Z" stroke="#608C88"/>
<path d="M20.1341 940.5L29.1309 952.5H11.1374L20.1341 940.5Z" fill="#608C88"/>
<path d="M20.1276 964.5L11.1309 952.5H29.1243L20.1276 964.5Z" fill="#608C88"/>
<path d="M40.6309 952.5L20.1309 927L0.630859 952.5L20.1309 977.5L40.6309 952.5Z" stroke="#608C88"/>
<path d="M20.1341 992L29.1309 1004H11.1374L20.1341 992Z" fill="#608C88"/>
<path d="M20.1276 1016L11.1309 1004H29.1243L20.1276 1016Z" fill="#608C88"/>
<path d="M40.6309 1004L20.1309 978.5L0.630859 1004L20.1309 1029L40.6309 1004Z" stroke="#608C88"/>
<path d="M20.1341 1043.5L29.1309 1055.5H11.1374L20.1341 1043.5Z" fill="#608C88"/>
<path d="M20.1276 1067.5L11.1309 1055.5H29.1243L20.1276 1067.5Z" fill="#608C88"/>
<path d="M40.6309 1055.5L20.1309 1030L0.630859 1055.5L20.1309 1080.5L40.6309 1055.5Z" stroke="#608C88"/>
</svg>
