<svg width="30" height="30" viewBox="0 0 30 30" fill="none" xmlns="http://www.w3.org/2000/svg">
<path d="M7.40002 21.35L9.07502 22.85" stroke="black" stroke-width="1.5" stroke-linecap="round" stroke-linejoin="round"/>
<path d="M19.675 18.725L17.375 19.8875L12.375 15.4L9.58751 16.5L13.65 21.35L9.07501 22.85L11.475 25C11.7516 25.2496 12.0925 25.4169 12.4591 25.4832C12.8257 25.5494 13.2035 25.512 13.55 25.375L21.1375 22.45C21.3837 22.354 21.6086 22.2104 21.7994 22.0274C21.9901 21.8445 22.143 21.6258 22.2492 21.3837C22.3554 21.1417 22.4129 20.8812 22.4184 20.6169C22.4239 20.3527 22.3773 20.09 22.2813 19.8437C22.1852 19.5975 22.0416 19.3726 21.8587 19.1819C21.6758 18.9911 21.457 18.8383 21.215 18.7321C20.973 18.6259 20.7124 18.5684 20.4482 18.5629C20.184 18.5574 19.9212 18.604 19.675 18.7V18.725Z" stroke="black" stroke-width="1.5" stroke-linecap="round" stroke-linejoin="round"/>
<path d="M0.9375 12.1875H29.0625" stroke="black" stroke-width="1.5" stroke-linejoin="round"/>
<path d="M8.4375 7.5V0.9375" stroke="black" stroke-width="1.5" stroke-linecap="round" stroke-linejoin="round"/>
<path d="M21.5625 7.5V0.9375" stroke="black" stroke-width="1.5" stroke-linecap="round" stroke-linejoin="round"/>
<path d="M19.375 29.0625H27.1875C27.6848 29.0625 28.1617 28.865 28.5133 28.5133C28.865 28.1617 29.0625 27.6848 29.0625 27.1875V6.5625C29.0625 6.06522 28.865 5.58831 28.5133 5.23667C28.1617 4.88504 27.6848 4.6875 27.1875 4.6875H2.8125C2.31522 4.6875 1.83831 4.88504 1.48667 5.23667C1.13504 5.58831 0.9375 6.06522 0.9375 6.5625V27.1875C0.9375 27.6848 1.13504 28.1617 1.48667 28.5133C1.83831 28.865 2.31522 29.0625 2.8125 29.0625H19.375Z" stroke="black" stroke-width="1.5" stroke-linecap="round" stroke-linejoin="round"/>
</svg>
