<svg width="30" height="30" viewBox="0 0 30 30" fill="none" xmlns="http://www.w3.org/2000/svg">
<g clip-path="url(#clip0_653_256)">
<path d="M4.90125 25.9488C4.90125 26.195 4.94974 26.4388 5.04397 26.6663C5.1382 26.8938 5.27631 27.1005 5.45042 27.2746C5.62453 27.4487 5.83123 27.5868 6.05871 27.681C6.2862 27.7753 6.53002 27.8238 6.77625 27.8238C7.02247 27.8238 7.26629 27.7753 7.49378 27.681C7.72126 27.5868 7.92796 27.4487 8.10207 27.2746C8.27618 27.1005 8.41429 26.8938 8.50852 26.6663C8.60275 26.4388 8.65125 26.195 8.65125 25.9488C8.65125 25.7025 8.60275 25.4587 8.50852 25.2312C8.41429 25.0037 8.27618 24.797 8.10207 24.6229C7.92796 24.4488 7.72126 24.3107 7.49378 24.2165C7.26629 24.1223 7.02247 24.0738 6.77625 24.0738C6.53002 24.0738 6.2862 24.1223 6.05871 24.2165C5.83123 24.3107 5.62453 24.4488 5.45042 24.6229C5.27631 24.797 5.1382 25.0037 5.04397 25.2312C4.94974 25.4587 4.90125 25.7025 4.90125 25.9488Z" stroke="black" stroke-width="1.5" stroke-linecap="round" stroke-linejoin="round"/>
<path d="M18.6512 25.9488C18.6512 26.446 18.8488 26.923 19.2004 27.2746C19.5521 27.6262 20.029 27.8238 20.5262 27.8238C21.0235 27.8238 21.5004 27.6262 21.8521 27.2746C22.2037 26.923 22.4012 26.446 22.4012 25.9488C22.4012 25.4515 22.2037 24.9746 21.8521 24.6229C21.5004 24.2713 21.0235 24.0738 20.5262 24.0738C20.029 24.0738 19.5521 24.2713 19.2004 24.6229C18.8488 24.9746 18.6512 25.4515 18.6512 25.9488Z" stroke="black" stroke-width="1.5" stroke-linecap="round" stroke-linejoin="round"/>
<path d="M29.2762 2.82376H26.0262C25.8852 2.82371 25.7483 2.87136 25.6378 2.95896C25.5273 3.04655 25.4496 3.16895 25.4175 3.30626L20.5262 24.0738H6.77625" stroke="black" stroke-width="1.5" stroke-linecap="round" stroke-linejoin="round"/>
<path d="M21.1512 21.5738H5.35122C5.2201 21.5737 5.09233 21.5323 4.986 21.4556C4.87966 21.3789 4.80015 21.2707 4.75872 21.1463L1.42497 11.1463C1.39366 11.0523 1.38515 10.9521 1.40014 10.8542C1.41513 10.7563 1.45319 10.6633 1.51119 10.5829C1.56918 10.5026 1.64545 10.4372 1.7337 10.3921C1.82194 10.3471 1.91963 10.3236 2.01872 10.3238H23.7287" stroke="black" stroke-width="1.5" stroke-linecap="round" stroke-linejoin="round"/>
<path d="M13.6512 10.3237L18.2137 5.76124C18.3306 5.64672 18.4876 5.58258 18.6512 5.58258C18.8148 5.58258 18.9719 5.64672 19.0887 5.76124L23.75 10.3237" stroke="black" stroke-width="1.5" stroke-linecap="round" stroke-linejoin="round"/>
<path d="M7.40125 10.3237L3.9125 2.54499C3.87844 2.46902 3.82954 2.40061 3.76868 2.3438C3.70782 2.28698 3.63622 2.2429 3.55809 2.21414C3.47995 2.18537 3.39686 2.17251 3.31369 2.17631C3.23051 2.18011 3.14894 2.20048 3.07375 2.23624L1.07375 3.18499C0.925982 3.25548 0.811772 3.38113 0.755672 3.53494C0.699573 3.68874 0.706064 3.85842 0.773749 4.00749L3.64875 10.3237" stroke="black" stroke-width="1.5" stroke-linecap="round" stroke-linejoin="round"/>
<path d="M8.65125 10.3238V7.19876C8.65125 7.033 8.71709 6.87403 8.8343 6.75682C8.95151 6.63961 9.11048 6.57376 9.27625 6.57376H14.2762" stroke="black" stroke-width="1.5" stroke-linecap="round" stroke-linejoin="round"/>
</g>
<defs>
<clipPath id="clip0_653_256">
<rect width="30" height="30" fill="white"/>
</clipPath>
</defs>
</svg>
