<svg width="30" height="30" viewBox="0 0 30 30" fill="none" xmlns="http://www.w3.org/2000/svg">
<g clip-path="url(#clip0_653_302)">
<path d="M0.9375 15C0.9375 18.7296 2.41908 22.3065 5.05631 24.9437C7.69354 27.5809 11.2704 29.0625 15 29.0625C18.7296 29.0625 22.3065 27.5809 24.9437 24.9437C27.5809 22.3065 29.0625 18.7296 29.0625 15C29.0625 11.2704 27.5809 7.69354 24.9437 5.05631C22.3065 2.41908 18.7296 0.9375 15 0.9375C11.2704 0.9375 7.69354 2.41908 5.05631 5.05631C2.41908 7.69354 0.9375 11.2704 0.9375 15Z" stroke="black" stroke-width="1.5" stroke-linecap="round" stroke-linejoin="round"/>
<path d="M6.25 26L7.5 19.6875H8.85C9.1351 19.6885 9.41657 19.6236 9.67243 19.4978C9.92829 19.372 10.1516 19.1888 10.325 18.9625C10.5036 18.7414 10.6273 18.4811 10.6859 18.203C10.7446 17.9249 10.7366 17.6369 10.6625 17.3625L9.725 13.6125C9.62676 13.206 9.39454 12.8443 9.06575 12.5858C8.73696 12.3273 8.33074 12.187 7.9125 12.1875H1.25" stroke="black" stroke-width="1.5" stroke-linecap="round" stroke-linejoin="round"/>
<path d="M26.25 6.5625H21.15C20.7317 6.56203 20.3255 6.70234 19.9967 6.96083C19.6679 7.21933 19.4357 7.58097 19.3375 7.9875L18.4 11.7375C18.3276 12.0129 18.3216 12.3015 18.3825 12.5796C18.4433 12.8578 18.5693 13.1175 18.75 13.3375C18.9234 13.5638 19.1467 13.747 19.4026 13.8728C19.6584 13.9986 19.9399 14.0635 20.225 14.0625H22.2L23.175 20C23.2481 20.4329 23.4709 20.8264 23.8044 21.1119C24.1379 21.3975 24.561 21.5569 25 21.5625H27.5" stroke="black" stroke-width="1.5" stroke-linecap="round" stroke-linejoin="round"/>
</g>
<defs>
<clipPath id="clip0_653_302">
<rect width="30" height="30" fill="white"/>
</clipPath>
</defs>
</svg>
