<svg width="20" height="26" viewBox="0 0 20 26" fill="none" xmlns="http://www.w3.org/2000/svg">
<path fill-rule="evenodd" clip-rule="evenodd" d="M9.99998 0.5C6.3433 0.5 3.37896 3.57383 3.37896 7.36558C3.37896 10.4961 5.3995 13.1372 8.16204 13.9632C5.98116 14.2388 4.1106 15.0386 2.70147 16.4787C0.90802 18.3115 0 21.0399 0 24.6004C0 25.0973 0.388439 25.5 0.867581 25.5C1.34674 25.5 1.73516 25.0973 1.73516 24.6004C1.73516 21.3428 2.56227 19.1471 3.91944 17.7602C5.27917 16.3706 7.30909 15.6516 9.99989 15.6516C12.6907 15.6516 14.7207 16.3706 16.0805 17.7602C17.4376 19.1471 18.2648 21.3428 18.2648 24.6004C18.2648 25.0973 18.6531 25.5 19.1324 25.5C19.6115 25.5002 20 25.0973 20 24.6006C20 21.0399 19.0919 18.3115 17.2984 16.4786C15.8893 15.0387 14.0187 14.2388 11.8379 13.9632C14.6004 13.1372 16.621 10.4961 16.621 7.36558C16.621 3.57383 13.6567 0.5 9.99998 0.5ZM5.11413 7.36558C5.11413 4.56753 7.3016 2.29926 9.99998 2.29926C12.6984 2.29926 14.8858 4.56753 14.8858 7.36558C14.8858 10.1636 12.6984 12.4319 9.99998 12.4319C7.3016 12.4319 5.11413 10.1636 5.11413 7.36558Z" fill="#0F1228"/>
</svg>
